<?xml version="1.0" encoding="utf-8"?>
<!-- Generator: Adobe Illustrator 25.0.1, SVG Export Plug-In . SVG Version: 6.00 Build 0)  -->
<svg version="1.0" id="katman_1" xmlns="http://www.w3.org/2000/svg" xmlns:xlink="http://www.w3.org/1999/xlink" x="0px" y="0px"
	 viewBox="0 0 800 600" style="enable-background:new 0 0 800 600;" xml:space="preserve">
<style type="text/css">
	.st0{fill:#69E2DC;}
	.st1{fill:#FFB8D2;}
	.st2{fill:#F4DB62;}
	.st3{fill:#FFC78A;}
	.st4{fill:#CDC5FF;}
</style>
<path class="st0" d="M169.8,234c-36.5,0-66,29.6-66,66s29.5,66,66,66s66-29.5,66-66C235.8,263.6,206.2,234,169.8,234 M175.1,303.1
	l23.1,23.1c1.9,1.9,1.7,5-0.5,6.6c-7.1,5.6-16.1,9-25.8,9c-24.7,0-44.4-21.4-41.5-46.6c2.1-19.3,17.8-34.9,37.3-36.8
	c11.5-1.1,22.1,2.4,30.3,8.8c2,1.6,2.1,4.6,0.3,6.4l-23.2,23.2C173.4,298.6,173.4,301.4,175.1,303.1 M254.2,318.7
	c-5.4,0-9.6,4.3-9.6,9.7c0,5.4,4.2,9.7,9.6,9.7c5.4,0,9.7-4.3,9.7-9.7C263.9,323.1,259.6,318.7,254.2,318.7"/>
<path class="st1" d="M276,328.7v-56.4c0-6.4,3.6-10,9.6-10h22.6c18.7,0,28.8,9.3,28.8,24.8c0,8.9-4.1,16.8-11.7,20.6l9.2,15.7
	c1.7,2.7,2,4.3,2,6.5c0,5.1-3.9,8.7-9.6,8.7c-4.6,0-6.6-1.6-9.9-7.4l-11.2-20H295v17.5c0,6.3-3.5,9.9-9.6,9.9
	C279.5,338.6,276,335,276,328.7 M306.2,298c7.1,0,11.2-4.1,11.2-10.6c0-6.4-4.4-10.7-11.2-10.7H295V298H306.2z M347.2,328.4
	c0-5.4,4.2-9.7,9.6-9.7s9.7,4.3,9.7,9.7s-4.3,9.7-9.7,9.7C351.5,338.1,347.2,333.8,347.2,328.4"/>
<path class="st2" d="M378.6,327.4v-55.1c0-6.4,3.6-10,9.6-10h34.4c5.2,0,8.5,2.8,8.5,7.7c0,4.9-3.4,7.7-8.5,7.7h-24.9v14.9h23.7
	c4.6,0,7.7,2.6,7.7,7.1c0,4.4-3,7.1-7.7,7.1h-23.7V322h24.9c5.1,0,8.5,2.8,8.5,7.7c0,4.9-3.3,7.7-8.5,7.7h-34.4
	C382,337.4,378.6,333.8,378.6,327.4 M441.5,328.4c0-5.4,4.2-9.7,9.6-9.7s9.7,4.3,9.7,9.7c0,5.4-4.3,9.7-9.7,9.7
	C445.8,338.1,441.5,333.8,441.5,328.4"/>
<path class="st3" d="M470.6,329.4c0-1.6,0.5-3.9,1.4-6.2l18.5-50.9c2.7-7.7,7.4-11.2,14.9-11.2c7.9,0,12.4,3.3,15.3,11.2l18.7,50.9
	c0.9,2.4,1.2,4.2,1.2,6.2c0,5.4-4,9.2-9.6,9.2s-8.4-2.5-10-8.7l-2.6-8.3h-25.7l-2.6,8c-1.8,6.4-4.7,9-9.8,9
	C474.3,338.5,470.6,335.1,470.6,329.4 M514.2,307.1l-8.8-28.9H505l-8.6,28.9H514.2L514.2,307.1z M550.5,328.4c0-5.4,4.2-9.7,9.6-9.7
	c5.4,0,9.7,4.3,9.7,9.7c0,5.4-4.3,9.7-9.7,9.7C554.7,338.1,550.5,333.8,550.5,328.4"/>
<path class="st4" d="M581.8,329.7v-56.1c0-7.9,4.5-12.4,12.4-12.4c6.7,0,10.2,2.7,13,9.7l15.7,39.7h0.4l15.6-39.7
	c2.7-7.1,6.4-9.7,13.1-9.7c7.9,0,12.4,4.5,12.4,12.4v56.1c0,5.6-3.1,8.9-8.4,8.9s-8.3-3.3-8.3-8.9v-39.2h-0.5l-16.7,41.4
	c-1.4,3.6-3.6,5.2-7.3,5.2c-3.6,0-6.1-1.6-7.4-5.2l-16.7-41.4h-0.5v39.2c0,5.6-3,8.9-8.3,8.9C584.9,338.5,581.8,335.3,581.8,329.7
	 M676.3,328.4c0-5.4,4.2-9.7,9.6-9.7c5.4,0,9.7,4.3,9.7,9.7s-4.3,9.7-9.7,9.7C680.6,338.1,676.3,333.8,676.3,328.4"/>
</svg>
